<svg xmlns="http://www.w3.org/2000/svg" width="42" height="42" fill="none" viewBox="0 0 60 60"><path fill="#ffffffb8" d="M38.651 30c0-4.76-3.888-8.634-8.668-8.634-4.779 0-8.667 3.873-8.667 8.634s3.888 8.634 8.668 8.634c4.779 0 8.667-3.873 8.667-8.634z"></path><path fill="#ffffffb8" d="M59.867 33.75C58.008 48.53 45.315 60 29.983 60S1.96 48.529.101 33.75h13.427c1.715 7.472 8.442 13.064 16.455 13.064 8.014 0 14.741-5.592 16.457-13.064h13.427zM59.867 26.25H46.44c-1.716-7.472-8.443-13.064-16.457-13.064-8.013 0-14.74 5.592-16.456 13.064H.101C1.959 11.471 14.65 0 29.983 0s28.025 11.471 29.884 26.25z"></path></svg>
